<svg width="14" height="14" viewBox="0 0 14 14" fill="none" xmlns="http://www.w3.org/2000/svg">
    <g clip-path="url(#s49hpjgeha)">
        <path d="m.029 7.175.41-2.917A2.93 2.93 0 0 1 3.326 1.75h7.758A2.92 2.92 0 0 1 14 4.667v2.916a2.92 2.92 0 0 1-2.917 2.917H9.501l-1.116 2.262a1.772 1.772 0 0 1-3.337-1.071l.196-1.191H2.917A2.917 2.917 0 0 1 .029 7.175zm11.054-4.258H9.917v6.416h1.166a1.75 1.75 0 0 0 1.75-1.75V4.667a1.75 1.75 0 0 0-1.75-1.75zM1.596 8.73a1.75 1.75 0 0 0 1.32.602h3.015a.583.583 0 0 1 .575.678l-.308 1.867a.597.597 0 0 0 .136.49.623.623 0 0 0 1.005-.124L8.616 9.66a.583.583 0 0 1 .134-.17V2.917H3.325a1.757 1.757 0 0 0-1.733 1.505L1.181 7.34a1.75 1.75 0 0 0 .415 1.392z" fill="#E01F39"/>
    </g>
    <defs>
        <clipPath id="s49hpjgeha">
            <path fill="#fff" transform="matrix(-1 0 0 1 14 0)" d="M0 0h14v14H0z"/>
        </clipPath>
    </defs>
</svg>
