<svg width="18" height="18" viewBox="0 0 18 18" fill="none" xmlns="http://www.w3.org/2000/svg">
    <g opacity=".6" clip-path="url(#ukql8l2j2a)">
        <path d="m.037 9.225.528-3.75a3.768 3.768 0 0 1 3.71-3.225h9.975A3.754 3.754 0 0 1 18 6v3.75a3.754 3.754 0 0 1-3.75 3.75h-2.034l-1.435 2.909A2.277 2.277 0 0 1 6.49 15.03l.252-1.531H3.75A3.75 3.75 0 0 1 .037 9.225zM14.25 3.75h-1.5V12h1.5a2.25 2.25 0 0 0 2.25-2.25V6a2.25 2.25 0 0 0-2.25-2.25zM2.052 11.226A2.25 2.25 0 0 0 3.75 12h3.875a.75.75 0 0 1 .74.871l-.396 2.4a.768.768 0 0 0 .175.63.803.803 0 0 0 1.292-.159l1.642-3.324a.75.75 0 0 1 .172-.218V3.75H4.275a2.259 2.259 0 0 0-2.228 1.936l-.529 3.75a2.25 2.25 0 0 0 .534 1.79z" fill="#152234"/>
    </g>
    <defs>
        <clipPath id="ukql8l2j2a">
            <path fill="#fff" transform="matrix(-1 0 0 1 18 0)" d="M0 0h18v18H0z"/>
        </clipPath>
    </defs>
</svg>
