<svg width="16" height="16" viewBox="0 0 16 16" fill="none" xmlns="http://www.w3.org/2000/svg">
    <g clip-path="url(#7brraezlya)">
        <path d="M11.087 1.933A60.95 60.95 0 0 1 9.452.513 1.968 1.968 0 0 0 7.867.016a1.897 1.897 0 0 0-1.355.867 13.582 13.582 0 0 0-1.66 4.3 4.083 4.083 0 0 1-.318-.544 1.333 1.333 0 0 0-2.2-.315A6.044 6.044 0 0 0 .61 8.605 7.32 7.32 0 0 0 6.09 15.76a7.762 7.762 0 0 0 1.85.235c.02 0 .233-.002.32-.008a7.372 7.372 0 0 0 7.133-7.378c-.003-3.02-1.998-4.713-4.307-6.676zM7.925 14.657a2.51 2.51 0 0 1-1.357-.538c-.58-.41-.963-1.011-1.054-1.704-.114-1.082.553-2.496 1.915-4.093a.747.747 0 0 1 1.133-.001c1.248 1.481 1.934 2.848 1.934 3.848-.004 1.315-1.032 2.355-2.34 2.482a1.261 1.261 0 0 1-.231.006zm3.793-1.268c-.04.03-.083.055-.123.084.154-.418.233-.86.234-1.305 0-1.685-1.223-3.49-2.249-4.708a2.067 2.067 0 0 0-1.577-.733H8a2.078 2.078 0 0 0-1.584.728c-1.63 1.91-2.378 3.625-2.225 5.099.036.342.124.677.26.993a6.063 6.063 0 0 1-2.506-4.942A4.708 4.708 0 0 1 3.334 5.22c.153.32.338.623.551.907.292.395.792.579 1.27.467.489-.108.868-.493.968-.983.268-1.416.78-2.774 1.513-4.015a.561.561 0 0 1 .406-.256.635.635 0 0 1 .513.161c.572.52 1.133 1 1.667 1.451 2.225 1.89 3.834 3.256 3.834 5.658a6.022 6.022 0 0 1-2.336 4.781l-.002-.001z" fill="#fff"/>
    </g>
    <defs>
        <clipPath id="7brraezlya">
            <path fill="#fff" d="M0 0h16v16H0z"/>
        </clipPath>
    </defs>
</svg>
