<svg width="24" height="24" viewBox="0 0 24 24" fill="none" xmlns="http://www.w3.org/2000/svg">
    <g clip-path="url(#84m9g8232a)" fill="#517AAE">
        <path d="M12 0a12 12 0 1 0 12 12A12.013 12.013 0 0 0 12 0zm0 22a10 10 0 1 1 10-10 10.011 10.011 0 0 1-10 10z"/>
        <path d="M12 10h-1a1 1 0 0 0 0 2h1v6a1 1 0 0 0 2 0v-6a2 2 0 0 0-2-2zM12 8a1.5 1.5 0 1 0 0-3 1.5 1.5 0 0 0 0 3z"/>
    </g>
    <defs>
        <clipPath id="84m9g8232a">
            <path fill="#fff" d="M0 0h24v24H0z"/>
        </clipPath>
    </defs>
</svg>
