<svg width="24" height="24" viewBox="0 0 24 24" fill="none" xmlns="http://www.w3.org/2000/svg">
    <g clip-path="url(#lff3mj4yna)">
        <path d="M11 15a1 1 0 0 1-2 0h-.268a3.01 3.01 0 0 1-2.598-1.499A1 1 0 0 1 7.865 12.5c.178.308.511.5.867.5H11c.551 0 1-.448 1-1a.768.768 0 0 0-.644-.76l-3.042-.507A2.762 2.762 0 0 1 5.999 8c0-1.654 1.346-3 3-3a1 1 0 0 1 2 0h.268a3.01 3.01 0 0 1 2.598 1.499A1 1 0 1 1 12.134 7.5a1.005 1.005 0 0 0-.867-.5H8.999c-.551 0-1 .448-1 1 0 .378.271.698.644.76l3.042.507A2.762 2.762 0 0 1 14 12c0 1.654-1.346 3-3 3zm-1.89 2.951A7.985 7.985 0 0 1 2 10c0-4.411 3.589-8 8-8 1.249 0 2.445.28 3.555.831a1 1 0 1 0 .891-1.791A9.903 9.903 0 0 0 10.001 0C4.486 0 0 4.486 0 10c0 5.106 3.933 9.385 9.001 9.945a1 1 0 0 0 .109-1.994zm14.597.223a.999.999 0 0 0-1.414 0L19 21.467V1a1 1 0 1 0-2 0v20.367l-3.293-3.293a.999.999 0 1 0-1.414 1.414l3.636 3.636A2.995 2.995 0 0 0 18.05 24c.767 0 1.537-.292 2.122-.877l3.535-3.536a.998.998 0 0 0 0-1.413z" fill="#FFAB00"/>
    </g>
    <defs>
        <clipPath id="lff3mj4yna">
            <path fill="#fff" d="M0 0h24v24H0z"/>
        </clipPath>
    </defs>
</svg>
