<svg width="20" height="20" viewBox="0 0 20 20" fill="none" xmlns="http://www.w3.org/2000/svg">
    <g clip-path="url(#hfwhjyglqa)">
        <path d="M10.007 20A10.055 10.055 0 0 1 .062 8.937 10.1 10.1 0 0 1 8.416.127a10.833 10.833 0 0 1 4.192.171 2.084 2.084 0 0 1 1.486 2.59c-.103.356-.3.678-.57.931-3.798 3.473-3.47 8.87.673 12.01a2.084 2.084 0 0 1-.583 3.6c-1.164.38-2.382.573-3.607.571zm.062-18.333a8.98 8.98 0 0 0-1.396.105A8.417 8.417 0 0 0 1.72 9.106a8.273 8.273 0 0 0 2.097 6.477 8.728 8.728 0 0 0 9.244 2.279.416.416 0 0 0 .115-.714c-4.94-3.731-5.329-10.409-.789-14.545a.383.383 0 0 0 .106-.387.41.41 0 0 0-.297-.302 8.899 8.899 0 0 0-2.127-.247zM17.083 10a.833.833 0 0 1-.808-.63l-.299-1.193-1.193-.32a.834.834 0 0 1 .03-1.617l1.166-.27.292-1.173a.834.834 0 0 1 1.617 0l.296 1.182 1.182.296a.833.833 0 0 1 0 1.617l-1.182.295-.296 1.182a.833.833 0 0 1-.805.631zm-3.75 1.667a.833.833 0 1 0 1.667 0 .833.833 0 0 0-1.667 0zm5 3.333A.833.833 0 1 0 20 15a.833.833 0 0 0-1.667 0z" fill="#fff"/>
    </g>
    <defs>
        <clipPath id="hfwhjyglqa">
            <path fill="#fff" d="M0 0h20v20H0z"/>
        </clipPath>
    </defs>
</svg>
