<svg width="14" height="14" viewBox="0 0 14 14" fill="none" xmlns="http://www.w3.org/2000/svg">
    <g clip-path="url(#r4iw6rf4aa)">
        <path d="M13.284 4.504a2.914 2.914 0 0 0-2.2-1.004H8.755l.196-1.19a1.772 1.772 0 0 0-3.337-1.072L4.5 3.5H2.917A2.92 2.92 0 0 0 0 6.417v2.917a2.92 2.92 0 0 0 2.917 2.916h7.758a2.93 2.93 0 0 0 2.888-2.508l.411-2.917a2.916 2.916 0 0 0-.69-2.32zM1.167 9.334V6.417a1.75 1.75 0 0 1 1.75-1.75h1.166v6.417H2.917a1.75 1.75 0 0 1-1.75-1.75zm11.65-2.673-.412 2.917a1.757 1.757 0 0 1-1.73 1.506H5.25V4.512a.583.583 0 0 0 .134-.17l1.277-2.588a.624.624 0 0 1 1.005-.12.598.598 0 0 1 .135.49L7.494 3.99a.583.583 0 0 0 .576.677h3.014a1.75 1.75 0 0 1 1.733 1.994z" fill="#0FC659"/>
    </g>
    <defs>
        <clipPath id="r4iw6rf4aa">
            <path fill="#fff" d="M0 0h14v14H0z"/>
        </clipPath>
    </defs>
</svg>
