<svg width="18" height="18" viewBox="0 0 18 18" fill="none" xmlns="http://www.w3.org/2000/svg">
    <g opacity=".6" clip-path="url(#aueqhlw6ha)">
        <path d="M17.08 5.791a3.746 3.746 0 0 0-2.83-1.29h-2.992l.252-1.531a2.278 2.278 0 0 0-4.29-1.378L5.784 4.501H3.75A3.755 3.755 0 0 0 0 8.25V12a3.755 3.755 0 0 0 3.75 3.75h9.975a3.768 3.768 0 0 0 3.713-3.226l.529-3.75a3.75 3.75 0 0 0-.887-2.984zM1.5 12.001V8.25A2.25 2.25 0 0 1 3.75 6h1.5v8.25h-1.5A2.25 2.25 0 0 1 1.5 12zm14.978-3.436-.53 3.75a2.259 2.259 0 0 1-2.223 1.936H6.75V5.8a.75.75 0 0 0 .173-.219l1.641-3.326A.802.802 0 0 1 9.856 2.1a.768.768 0 0 1 .175.63l-.397 2.4a.75.75 0 0 0 .74.87h3.876a2.25 2.25 0 0 1 2.228 2.564z" fill="#152234"/>
    </g>
    <defs>
        <clipPath id="aueqhlw6ha">
            <path fill="#fff" d="M0 0h18v18H0z"/>
        </clipPath>
    </defs>
</svg>
