<svg width="20" height="20" viewBox="0 0 20 20" fill="none" xmlns="http://www.w3.org/2000/svg">
    <g clip-path="url(#9z6upd8jya)">
        <path d="M10 14.167A4.168 4.168 0 0 1 5.833 10C5.833 7.7 7.7 5.833 10 5.833S14.167 7.7 14.167 10 12.3 14.167 10 14.167zm.833-10.834v-2.5A.836.836 0 0 0 10 0a.836.836 0 0 0-.833.833v2.5c0 .459.375.834.833.834a.836.836 0 0 0 .833-.834zm0 15.834v-2.5a.836.836 0 0 0-.833-.834.836.836 0 0 0-.833.834v2.5c0 .458.375.833.833.833a.836.836 0 0 0 .833-.833zM4.167 10a.836.836 0 0 0-.834-.833h-2.5A.836.836 0 0 0 0 10c0 .458.375.833.833.833h2.5A.836.836 0 0 0 4.167 10zM20 10a.836.836 0 0 0-.833-.833h-2.5a.836.836 0 0 0-.834.833c0 .458.375.833.834.833h2.5A.836.836 0 0 0 20 10zM5.592 5.592a.83.83 0 0 0 0-1.175L3.925 2.75A.83.83 0 1 0 2.75 3.925l1.667 1.667a.818.818 0 0 0 .591.241.854.854 0 0 0 .592-.241h-.008zm11.666 11.666a.83.83 0 0 0 0-1.175l-1.666-1.666a.83.83 0 1 0-1.175 1.175l1.666 1.666a.818.818 0 0 0 .592.242.853.853 0 0 0 .592-.242h-.009zm-13.333 0 1.667-1.666a.83.83 0 1 0-1.175-1.175L2.75 16.083a.83.83 0 0 0 .592 1.417.853.853 0 0 0 .591-.242h-.008zM15.592 5.592l1.666-1.667a.83.83 0 1 0-1.175-1.175l-1.666 1.667a.83.83 0 0 0 .591 1.416.854.854 0 0 0 .592-.241h-.008z" fill="#152234"/>
    </g>
    <defs>
        <clipPath id="9z6upd8jya">
            <path fill="#fff" d="M0 0h20v20H0z"/>
        </clipPath>
    </defs>
</svg>
