<svg width="16" height="16" viewBox="0 0 16 16" fill="none" xmlns="http://www.w3.org/2000/svg">
    <path d="M12.667 5.616v-.95a4.666 4.666 0 1 0-9.333 0v.95a3.333 3.333 0 0 0-2 3.05v4A3.337 3.337 0 0 0 4.667 16h6.667a3.337 3.337 0 0 0 3.333-3.333v-4a3.334 3.334 0 0 0-2-3.051zm-8-.95a3.333 3.333 0 0 1 6.667 0v.667H4.667v-.666zm8.667 8a2 2 0 0 1-2 2H4.667a2 2 0 0 1-2-2v-4a2 2 0 0 1 2-2h6.667a2 2 0 0 1 2 2v4z" fill="#152234"/>
    <path d="M8 9.334a.667.667 0 0 0-.666.667v1.333a.667.667 0 1 0 1.333 0v-1.333a.667.667 0 0 0-.666-.667z" fill="#152234"/>
</svg>
