<svg width="20" height="20" viewBox="0 0 20 20" fill="none" xmlns="http://www.w3.org/2000/svg">
    <g clip-path="url(#ixbgfjvlna)">
        <path d="M16.75 15.876a1.125 1.125 0 1 1-2.25 0 1.125 1.125 0 0 1 2.25 0zM2.127 2.751a1.124 1.124 0 1 0-.001 2.25 1.124 1.124 0 0 0 0-2.25zm3.75-2.25a1.124 1.124 0 1 0-.001 2.25 1.124 1.124 0 0 0 0-2.25zM18.25 7.25a.751.751 0 0 1 .483 1.323l-1.773 1.445.733 2.235a.75.75 0 0 1-1.121.865l-2.065-1.345-2.03 1.36a.75.75 0 0 1-1.134-.848l.705-2.261-1.783-1.45a.749.749 0 0 1 .485-1.322h2.25l.796-2.139a.751.751 0 0 1 1.406 0l.796 2.139h2.25l.002-.002zm-11.514.153c.186-.198.377-.396.573-.592 4.163-4.162 8.481-5.646 9.753-4.373.45.45.557 1.308.3 2.418a.75.75 0 1 0 1.461.338c.485-2.091-.112-3.23-.7-3.817C15.987-.762 10.883 1.12 6.252 5.75c-.208.208-.41.417-.607.627a.75.75 0 0 0 1.093 1.026zm4.177 8.298a.75.75 0 1 0-.89-1.209c-3.056 2.251-6.037 3.123-7.088 2.073-.444-.445-.47-1.19-.414-1.736a.75.75 0 0 0-.67-.823.757.757 0 0 0-.822.67c-.128 1.248.164 2.268.846 2.95.582.582 1.399.866 2.38.866 1.807 0 4.172-.961 6.657-2.79l.001-.001zm-4.346-5.552-1.424-.525L4.6 8.181a.633.633 0 0 0-1.2 0l-.539 1.43-1.428.538a.633.633 0 0 0 0 1.201l1.442.543.524 1.423a.633.633 0 0 0 1.2 0l.531-1.437 1.439-.529a.633.633 0 0 0-.001-1.2z" fill="#29AADC"/>
    </g>
    <defs>
        <clipPath id="ixbgfjvlna">
            <path fill="#fff" transform="translate(1 .5)" d="M0 0h18v18H0z"/>
        </clipPath>
    </defs>
</svg>
