<svg width="16" height="16" viewBox="0 0 16 16" fill="none" xmlns="http://www.w3.org/2000/svg">
    <g clip-path="url(#9r1obtveca)">
        <path d="M15.413.588a1.977 1.977 0 0 0-1.867-.534L2.88 2.301A3.33 3.33 0 0 0 .978 7.955L2.123 9.1a.667.667 0 0 1 .195.472v2.112c.002.297.07.59.2.856l-.005.005.017.017a2 2 0 0 0 .908.904l.017.018.005-.006c.267.13.56.199.857.2h2.112c.177 0 .346.07.471.195l1.145 1.145a3.308 3.308 0 0 0 3.416.806 3.288 3.288 0 0 0 2.23-2.658l2.25-10.69a1.982 1.982 0 0 0-.528-1.888zM3.067 8.158 1.92 7.014a1.96 1.96 0 0 1-.482-2.05 1.985 1.985 0 0 1 1.667-1.35l10.56-2.224L3.65 11.408V9.572a1.985 1.985 0 0 0-.583-1.414zm9.314 4.78a2 2 0 0 1-3.393 1.142l-1.146-1.147a1.986 1.986 0 0 0-1.413-.585H4.592L14.61 2.333l-2.23 10.605z" fill="#fff"/>
    </g>
    <defs>
        <clipPath id="9r1obtveca">
            <path fill="#fff" d="M0 0h16v16H0z"/>
        </clipPath>
    </defs>
</svg>
