<svg width="18" height="18" viewBox="0 0 18 18" fill="none" xmlns="http://www.w3.org/2000/svg">
    <g clip-path="url(#9ihrjatzsa)">
        <path d="m16.903 6.346-5.25-5.251A3.728 3.728 0 0 0 9.002-.004C8-.004 7.057.386 6.35 1.095L1.1 6.345a3.753 3.753 0 0 0 0 5.302l5.25 5.251A3.727 3.727 0 0 0 9 17.997c1.003 0 1.944-.39 2.652-1.099l5.25-5.25A3.724 3.724 0 0 0 18 8.996c0-1.001-.39-1.943-1.098-2.651zm-1.06 4.24-5.25 5.252c-.85.85-2.333.85-3.183 0l-5.25-5.251a2.252 2.252 0 0 1 0-3.18l5.25-5.252c.425-.424.99-.659 1.591-.659.602 0 1.167.234 1.592.66l5.25 5.25c.424.425.658.99.658 1.59 0 .602-.234 1.166-.659 1.59zm-5.717 1.79a1.125 1.125 0 1 1-2.251-.001 1.125 1.125 0 0 1 2.25 0zm-1.875-3V5.25a.75.75 0 1 1 1.5 0v4.125a.75.75 0 1 1-1.5 0z" fill="#F0721C"/>
    </g>
    <defs>
        <clipPath id="9ihrjatzsa">
            <path fill="#fff" d="M0 0h18v18H0z"/>
        </clipPath>
    </defs>
</svg>
