<svg width="32" height="32" viewBox="0 0 32 32" fill="none" xmlns="http://www.w3.org/2000/svg">
<path d="M0 16C0 7.16344 7.16344 0 16 0C24.8366 0 32 7.16344 32 16C32 24.8366 24.8366 32 16 32C7.16344 32 0 24.8366 0 16Z" fill="#0F68AA"/>
<path d="M22.7952 11.9162V18.7935L16 14.7302L9.19658 18.7984V11.9128L6.39999 10.7549V23.6255L16 17.885L25.6 23.6255V20.4707L25.5999 20.4706V10.7549L22.7952 11.9162Z" fill="white"/>
<path d="M9.20479 11.2484L16.0001 7.25287L22.7953 11.2484L25.3321 10.1979L16.0001 4.71094L6.668 10.1979L9.20479 11.2484Z" fill="white"/>
<path d="M21.1876 21.6963L16.0001 24.7465L10.8124 21.6963L8.66901 22.9781L16.0001 27.2885L23.3312 22.9781L21.1876 21.6963Z" fill="white"/>
</svg>
